<svg width="29" height="28" viewBox="0 0 29 28" fill="none" xmlns="http://www.w3.org/2000/svg">
<path d="M15.4097 3.02433L18.3626 8.98576C18.4298 9.13708 18.5354 9.26814 18.669 9.3659C18.8026 9.46364 18.9595 9.52469 19.124 9.5429L25.6425 10.5086C25.8314 10.5329 26.0093 10.6103 26.1557 10.732C26.302 10.8536 26.4108 11.0143 26.4691 11.1954C26.5276 11.3765 26.5332 11.5705 26.4855 11.7547C26.4379 11.939 26.3388 12.1058 26.1997 12.2358L21.5011 16.8972C21.3813 17.0092 21.2912 17.1495 21.2394 17.3052C21.1874 17.4609 21.1754 17.627 21.204 17.7886L22.3368 24.3443C22.3697 24.5328 22.3489 24.7265 22.277 24.9036C22.2051 25.0808 22.085 25.2342 21.9301 25.3466C21.7754 25.4587 21.5921 25.5252 21.4014 25.5386C21.2106 25.5518 21.0199 25.5113 20.8511 25.4214L14.9826 22.32C14.8323 22.2462 14.6671 22.208 14.4997 22.208C14.3323 22.208 14.1671 22.2462 14.0169 22.32L8.1483 25.4214C7.97946 25.5113 7.78883 25.5518 7.59808 25.5386C7.40733 25.5252 7.22413 25.4587 7.06933 25.3466C6.91452 25.2342 6.79433 25.0808 6.72242 24.9036C6.65053 24.7265 6.62978 24.5328 6.66258 24.3443L7.79544 17.7143C7.82415 17.5528 7.812 17.3866 7.76012 17.2309C7.70823 17.0752 7.61821 16.9349 7.4983 16.8229L2.74402 12.2358C2.60336 12.1022 2.50444 11.9308 2.45925 11.7422C2.41405 11.5536 2.42452 11.3559 2.48938 11.1731C2.55424 10.9903 2.6707 10.8303 2.82467 10.7123C2.97864 10.5944 3.16351 10.5236 3.35687 10.5086L9.87544 9.5429C10.04 9.52469 10.1969 9.46364 10.3305 9.3659C10.4641 9.26814 10.5697 9.13708 10.6369 8.98576L13.5897 3.02433C13.6701 2.85071 13.7985 2.70371 13.9598 2.60069C14.121 2.49767 14.3084 2.44293 14.4997 2.44293C14.6911 2.44293 14.8784 2.49767 15.0397 2.60069C15.2009 2.70371 15.3293 2.85071 15.4097 3.02433Z" stroke="#999999" stroke-width="2" stroke-linecap="round" stroke-linejoin="round"/>
</svg>
