<svg width="29" height="29" viewBox="0 0 29 29" fill="none" xmlns="http://www.w3.org/2000/svg">
<path d="M4.20187 5.00824C3.70932 5.00824 3.23695 5.20391 2.88867 5.55218C2.54039 5.90047 2.34473 6.37283 2.34473 6.86538V24.5082C2.34473 25.0008 2.54039 25.4732 2.88867 25.8214C3.23695 26.1696 3.70932 26.3654 4.20187 26.3654H24.6304C25.123 26.3654 25.5954 26.1696 25.9436 25.8214C26.2918 25.4732 26.4876 25.0008 26.4876 24.5082V6.86538C26.4876 6.37283 26.2918 5.90047 25.9436 5.55218C25.5954 5.20391 25.123 5.00824 24.6304 5.00824H20.9162" stroke="#999999" stroke-width="2" stroke-linecap="round" stroke-linejoin="round"/>
<path d="M7.91602 2.22253V7.79396" stroke="#999999" stroke-width="2" stroke-linecap="round" stroke-linejoin="round"/>
<path d="M20.916 2.22253V7.79396" stroke="#999999" stroke-width="2" stroke-linecap="round" stroke-linejoin="round"/>
<path d="M7.91602 5.00824H17.2017" stroke="#999999" stroke-width="2" stroke-linecap="round" stroke-linejoin="round"/>
<path d="M19.9876 14.0414L12.3147 21.7143L8.84473 22.1868L9.33345 18.7169L16.9901 11.0439L19.9876 14.0414Z" stroke="#999999" stroke-width="2" stroke-linecap="round" stroke-linejoin="round"/>
</svg>
