<svg width="29" height="29" viewBox="0 0 29 29" fill="none" xmlns="http://www.w3.org/2000/svg">
<path d="M10.8577 6.05139L11.6563 3.98996C11.7909 3.64094 12.0279 3.34073 12.3361 3.12864C12.6443 2.91656 13.0093 2.8025 13.3834 2.80139H14.9063C15.2804 2.8025 15.6454 2.91656 15.9536 3.12864C16.2618 3.34073 16.4987 3.64094 16.6334 3.98996L17.432 6.05139L20.1433 7.61139L22.3348 7.27711C22.6997 7.22758 23.0711 7.28764 23.4019 7.44967C23.7324 7.61171 24.0075 7.86838 24.1919 8.18711L24.9348 9.48711C25.1251 9.8109 25.213 10.1848 25.1864 10.5595C25.1598 10.9341 25.0204 11.2919 24.7862 11.5857L23.4305 13.3128V16.4328L24.8233 18.16C25.0575 18.4537 25.197 18.8115 25.2235 19.1862C25.2501 19.5608 25.1623 19.9347 24.9719 20.2585L24.229 21.5585C24.0446 21.8772 23.7696 22.1339 23.439 22.296C23.1083 22.458 22.7368 22.5181 22.3719 22.4685L20.1805 22.1343L17.4691 23.6943L16.6705 25.7557C16.5359 26.1046 16.2989 26.4049 15.9907 26.617C15.6826 26.8291 15.3175 26.9431 14.9434 26.9443H13.3834C13.0093 26.9431 12.6443 26.8291 12.3361 26.617C12.0279 26.4049 11.7909 26.1046 11.6563 25.7557L10.8577 23.6943L8.14626 22.1343L5.95483 22.4685C5.58994 22.5181 5.21855 22.458 4.88787 22.296C4.5572 22.1339 4.28216 21.8772 4.09769 21.5585L3.35483 20.2585C3.16448 19.9347 3.07678 19.5608 3.1033 19.1862C3.12982 18.8115 3.26933 18.4537 3.50341 18.16L4.85912 16.4328V13.3128L3.46626 11.5857C3.23219 11.2919 3.09268 10.9341 3.06616 10.5595C3.03964 10.1848 3.12733 9.8109 3.31769 9.48711L4.06055 8.18711C4.24502 7.86838 4.52006 7.61171 4.85073 7.44967C5.18141 7.28764 5.5528 7.22758 5.91769 7.27711L8.10912 7.61139L10.8577 6.05139ZM10.4305 14.8728C10.4305 15.6074 10.6484 16.3256 11.0565 16.9364C11.4647 17.5472 12.0447 18.0232 12.7234 18.3044C13.4021 18.5855 14.149 18.6591 14.8695 18.5157C15.59 18.3724 16.2518 18.0187 16.7712 17.4992C17.2907 16.9798 17.6444 16.3179 17.7878 15.5974C17.9311 14.8769 17.8575 14.1301 17.5764 13.4514C17.2953 12.7727 16.8192 12.1926 16.2084 11.7845C15.5976 11.3764 14.8794 11.1585 14.1448 11.1585C13.1598 11.1585 12.215 11.5499 11.5184 12.2464C10.8219 12.943 10.4305 13.8877 10.4305 14.8728Z" stroke="#999999" stroke-width="2" stroke-linecap="round" stroke-linejoin="round"/>
</svg>
